<svg width="14" height="14" viewBox="0 0 14 14" fill="none" xmlns="http://www.w3.org/2000/svg">
<path d="M7 1.31213C6.01211 1.31242 5.04133 1.56994 4.1832 2.05935C3.32506 2.54876 2.60916 3.25318 2.10594 4.10329C1.60272 4.9534 1.32954 5.91989 1.31327 6.90764C1.29701 7.89539 1.53822 8.87035 2.01318 9.73656L1.54535 11.3721C1.50236 11.5221 1.50032 11.681 1.53942 11.8321C1.57852 11.9832 1.65735 12.1211 1.76773 12.2315C1.87811 12.3418 2.01601 12.4207 2.16713 12.4598C2.31825 12.4989 2.47708 12.4968 2.62714 12.4538L4.26306 11.9873C5.02338 12.4045 5.86902 12.6423 6.73534 12.6825C7.60165 12.7227 8.46569 12.5643 9.26141 12.2195C10.0571 11.8746 10.7634 11.3523 11.3264 10.6926C11.8893 10.0328 12.2939 9.25313 12.5093 8.41305C12.7247 7.57298 12.7451 6.69478 12.5691 5.84559C12.393 4.9964 12.0251 4.19871 11.4935 3.51351C10.9619 2.82831 10.2806 2.27374 9.50179 1.8922C8.72298 1.51065 7.86724 1.31224 7 1.31213ZM8.75 8.31213H5.25C5.13396 8.31213 5.02268 8.26603 4.94064 8.18398C4.85859 8.10194 4.8125 7.99066 4.8125 7.87463C4.8125 7.75859 4.85859 7.64731 4.94064 7.56527C5.02268 7.48322 5.13396 7.43713 5.25 7.43713H8.75C8.86603 7.43713 8.97731 7.48322 9.05936 7.56527C9.1414 7.64731 9.1875 7.75859 9.1875 7.87463C9.1875 7.99066 9.1414 8.10194 9.05936 8.18398C8.97731 8.26603 8.86603 8.31213 8.75 8.31213ZM8.75 6.56213H5.25C5.13396 6.56213 5.02268 6.51603 4.94064 6.43399C4.85859 6.35194 4.8125 6.24066 4.8125 6.12463C4.8125 6.00859 4.85859 5.89731 4.94064 5.81527C5.02268 5.73322 5.13396 5.68713 5.25 5.68713H8.75C8.86603 5.68713 8.97731 5.73322 9.05936 5.81527C9.1414 5.89731 9.1875 6.00859 9.1875 6.12463C9.1875 6.24066 9.1414 6.35194 9.05936 6.43399C8.97731 6.51603 8.86603 6.56213 8.75 6.56213Z" fill="black"/>
</svg>
